<svg width="20" height="20" viewBox="0 0 20 20" fill="none" xmlns="http://www.w3.org/2000/svg">
<g clip-path="url(#clip0_8002_644)">
<path d="M19.3136 10.1785C19.3136 9.39673 19.2502 8.82623 19.1129 8.23462H10.1857V11.7632H15.4258C15.3202 12.6401 14.7497 13.9607 13.4819 14.8481L13.4641 14.9662L16.2867 17.1528L16.4823 17.1724C18.2783 15.5137 19.3136 13.0732 19.3136 10.1785Z" fill="#4285F4"/>
<path d="M10.1857 19.4754C12.7529 19.4754 14.9081 18.6302 16.4823 17.1723L13.4819 14.848C12.679 15.4079 11.6014 15.7988 10.1857 15.7988C7.67134 15.7988 5.53728 14.1402 4.77655 11.8477L4.66504 11.8571L1.73005 14.1285L1.69167 14.2352C3.25523 17.3412 6.46691 19.4754 10.1857 19.4754Z" fill="#34A853"/>
<path d="M4.77655 11.8478C4.57582 11.2562 4.45966 10.6222 4.45966 9.96726C4.45966 9.31221 4.57582 8.67835 4.76599 8.08674L4.76067 7.96074L1.7889 5.65283L1.69167 5.69908C1.04725 6.98799 0.677483 8.43539 0.677483 9.96726C0.677483 11.4991 1.04725 12.9465 1.69167 14.2354L4.77655 11.8478Z" fill="#FBBC05"/>
<path d="M10.1857 4.13548C11.9711 4.13548 13.1755 4.9067 13.8622 5.55119L16.5456 2.93113C14.8976 1.39925 12.7529 0.458984 10.1857 0.458984C6.46691 0.458984 3.25523 2.59304 1.69167 5.69904L4.76599 8.0867C5.53728 5.79416 7.67134 4.13548 10.1857 4.13548Z" fill="#EA4335"/>
</g>
<defs>
<clipPath id="clip0_8002_644">
<rect width="18.645" height="19.082" fill="white" transform="translate(0.677483 0.458984)"/>
</clipPath>
</defs>
</svg>
